<mxfile host="Electron" agent="Mozilla/5.0 (X11; Linux x86_64) AppleWebKit/537.36 (KHTML, like Gecko) draw.io/26.1.1 Chrome/132.0.6834.210 Electron/34.3.3 Safari/537.36" version="26.1.1">
  <diagram id="C5RBs43oDa-KdzZeNtuy" name="Page-1">
    <mxGraphModel dx="1257" dy="850" grid="1" gridSize="10" guides="1" tooltips="1" connect="1" arrows="1" fold="1" page="1" pageScale="1" pageWidth="1169" pageHeight="827" math="0" shadow="0">
      <root>
        <mxCell id="WIyWlLk6GJQsqaUBKTNV-0" />
        <mxCell id="WIyWlLk6GJQsqaUBKTNV-1" parent="WIyWlLk6GJQsqaUBKTNV-0" />
        <mxCell id="zkfFHV4jXpPFQw0GAbJ--0" value="Backup" style="swimlane;fontStyle=2;align=center;verticalAlign=top;childLayout=stackLayout;horizontal=1;startSize=26;horizontalStack=0;resizeParent=1;resizeLast=0;collapsible=1;marginBottom=0;rounded=0;shadow=0;strokeWidth=1;" parent="WIyWlLk6GJQsqaUBKTNV-1" vertex="1">
          <mxGeometry x="311" y="364" width="120" height="80" as="geometry">
            <mxRectangle x="230" y="140" width="160" height="26" as="alternateBounds" />
          </mxGeometry>
        </mxCell>
        <mxCell id="zkfFHV4jXpPFQw0GAbJ--5" value="create()&#xa;checkIntegrity()&#xa;deleteOld()" style="text;align=left;verticalAlign=top;spacingLeft=4;spacingRight=4;overflow=hidden;rotatable=0;points=[[0,0.5],[1,0.5]];portConstraint=eastwest;" parent="zkfFHV4jXpPFQw0GAbJ--0" vertex="1">
          <mxGeometry y="26" width="120" height="54" as="geometry" />
        </mxCell>
        <mxCell id="fT_mrtIJARCYDNM3J5pl-1" value="package cli" style="shape=folder;fontStyle=1;spacingTop=10;tabWidth=40;tabHeight=14;tabPosition=left;html=1;whiteSpace=wrap;" vertex="1" parent="WIyWlLk6GJQsqaUBKTNV-1">
          <mxGeometry x="196" y="224" width="105" height="50" as="geometry" />
        </mxCell>
        <mxCell id="fT_mrtIJARCYDNM3J5pl-2" value="package core" style="shape=folder;fontStyle=1;spacingTop=10;tabWidth=40;tabHeight=14;tabPosition=left;html=1;whiteSpace=wrap;" vertex="1" parent="WIyWlLk6GJQsqaUBKTNV-1">
          <mxGeometry x="517" y="224" width="105" height="50" as="geometry" />
        </mxCell>
        <mxCell id="fT_mrtIJARCYDNM3J5pl-3" value="package gui" style="shape=folder;fontStyle=1;spacingTop=10;tabWidth=40;tabHeight=14;tabPosition=left;html=1;whiteSpace=wrap;" vertex="1" parent="WIyWlLk6GJQsqaUBKTNV-1">
          <mxGeometry x="846" y="224" width="105" height="50" as="geometry" />
        </mxCell>
        <mxCell id="fT_mrtIJARCYDNM3J5pl-7" value="Config" style="swimlane;fontStyle=2;align=center;verticalAlign=top;childLayout=stackLayout;horizontal=1;startSize=26;horizontalStack=0;resizeParent=1;resizeLast=0;collapsible=1;marginBottom=0;rounded=0;shadow=0;strokeWidth=1;" vertex="1" parent="WIyWlLk6GJQsqaUBKTNV-1">
          <mxGeometry x="446" y="364" width="120" height="60" as="geometry">
            <mxRectangle x="230" y="140" width="160" height="26" as="alternateBounds" />
          </mxGeometry>
        </mxCell>
        <mxCell id="fT_mrtIJARCYDNM3J5pl-8" value="update()&#xa;" style="text;align=left;verticalAlign=top;spacingLeft=4;spacingRight=4;overflow=hidden;rotatable=0;points=[[0,0.5],[1,0.5]];portConstraint=eastwest;" vertex="1" parent="fT_mrtIJARCYDNM3J5pl-7">
          <mxGeometry y="26" width="120" height="34" as="geometry" />
        </mxCell>
        <mxCell id="fT_mrtIJARCYDNM3J5pl-9" value="Core" style="swimlane;fontStyle=3;align=center;verticalAlign=top;childLayout=stackLayout;horizontal=1;startSize=26;horizontalStack=0;resizeParent=1;resizeLast=0;collapsible=1;marginBottom=0;rounded=0;shadow=0;strokeWidth=1;" vertex="1" parent="WIyWlLk6GJQsqaUBKTNV-1">
          <mxGeometry x="586" y="364" width="120" height="140" as="geometry">
            <mxRectangle x="230" y="140" width="160" height="26" as="alternateBounds" />
          </mxGeometry>
        </mxCell>
        <mxCell id="fT_mrtIJARCYDNM3J5pl-10" value="getConfig()&#xa;updateConfig()&#xa;backup()&#xa;checkIntegrity()&#xa;initAutoBackup()&#xa;stopAutoBackup()&#xa;die()" style="text;align=left;verticalAlign=top;spacingLeft=4;spacingRight=4;overflow=hidden;rotatable=0;points=[[0,0.5],[1,0.5]];portConstraint=eastwest;fontStyle=1" vertex="1" parent="fT_mrtIJARCYDNM3J5pl-9">
          <mxGeometry y="26" width="120" height="114" as="geometry" />
        </mxCell>
        <mxCell id="fT_mrtIJARCYDNM3J5pl-13" value="Log" style="swimlane;fontStyle=2;align=center;verticalAlign=top;childLayout=stackLayout;horizontal=1;startSize=26;horizontalStack=0;resizeParent=1;resizeLast=0;collapsible=1;marginBottom=0;rounded=0;shadow=0;strokeWidth=1;" vertex="1" parent="WIyWlLk6GJQsqaUBKTNV-1">
          <mxGeometry x="726" y="364" width="120" height="80" as="geometry">
            <mxRectangle x="230" y="140" width="160" height="26" as="alternateBounds" />
          </mxGeometry>
        </mxCell>
        <mxCell id="fT_mrtIJARCYDNM3J5pl-14" value="debug()&#xa;info()&#xa;error()" style="text;align=left;verticalAlign=top;spacingLeft=4;spacingRight=4;overflow=hidden;rotatable=0;points=[[0,0.5],[1,0.5]];portConstraint=eastwest;" vertex="1" parent="fT_mrtIJARCYDNM3J5pl-13">
          <mxGeometry y="26" width="120" height="54" as="geometry" />
        </mxCell>
        <mxCell id="fT_mrtIJARCYDNM3J5pl-16" value="&lt;b style=&quot;font-style: italic;&quot;&gt;App&lt;/b&gt;&amp;nbsp;(command line)" style="html=1;whiteSpace=wrap;" vertex="1" parent="WIyWlLk6GJQsqaUBKTNV-1">
          <mxGeometry x="196" y="574" width="127.5" height="30" as="geometry" />
        </mxCell>
        <mxCell id="fT_mrtIJARCYDNM3J5pl-17" style="edgeStyle=orthogonalEdgeStyle;rounded=0;orthogonalLoop=1;jettySize=auto;html=1;exitX=0.5;exitY=0;exitDx=0;exitDy=0;entryX=0.61;entryY=1.045;entryDx=0;entryDy=0;entryPerimeter=0;" edge="1" parent="WIyWlLk6GJQsqaUBKTNV-1" source="fT_mrtIJARCYDNM3J5pl-16" target="fT_mrtIJARCYDNM3J5pl-1">
          <mxGeometry relative="1" as="geometry" />
        </mxCell>
        <mxCell id="fT_mrtIJARCYDNM3J5pl-18" value="&lt;b style=&quot;font-style: italic;&quot;&gt;App&lt;/b&gt;&amp;nbsp;(Swing GUI)" style="html=1;whiteSpace=wrap;" vertex="1" parent="WIyWlLk6GJQsqaUBKTNV-1">
          <mxGeometry x="706" y="574" width="127.5" height="30" as="geometry" />
        </mxCell>
        <mxCell id="fT_mrtIJARCYDNM3J5pl-20" style="edgeStyle=orthogonalEdgeStyle;rounded=0;orthogonalLoop=1;jettySize=auto;html=1;exitX=0.5;exitY=0;exitDx=0;exitDy=0;entryX=0.399;entryY=1.023;entryDx=0;entryDy=0;entryPerimeter=0;" edge="1" parent="WIyWlLk6GJQsqaUBKTNV-1" source="fT_mrtIJARCYDNM3J5pl-18" target="fT_mrtIJARCYDNM3J5pl-3">
          <mxGeometry relative="1" as="geometry">
            <Array as="points">
              <mxPoint x="770" y="494" />
              <mxPoint x="888" y="494" />
            </Array>
          </mxGeometry>
        </mxCell>
        <mxCell id="fT_mrtIJARCYDNM3J5pl-21" style="edgeStyle=orthogonalEdgeStyle;rounded=0;orthogonalLoop=1;jettySize=auto;html=1;exitX=0.5;exitY=0;exitDx=0;exitDy=0;entryX=0;entryY=0;entryDx=0;entryDy=50;entryPerimeter=0;" edge="1" parent="WIyWlLk6GJQsqaUBKTNV-1" source="zkfFHV4jXpPFQw0GAbJ--0" target="fT_mrtIJARCYDNM3J5pl-2">
          <mxGeometry relative="1" as="geometry" />
        </mxCell>
        <mxCell id="fT_mrtIJARCYDNM3J5pl-22" style="edgeStyle=orthogonalEdgeStyle;rounded=0;orthogonalLoop=1;jettySize=auto;html=1;exitX=0.5;exitY=0;exitDx=0;exitDy=0;entryX=0.25;entryY=1;entryDx=0;entryDy=0;entryPerimeter=0;" edge="1" parent="WIyWlLk6GJQsqaUBKTNV-1" source="fT_mrtIJARCYDNM3J5pl-7" target="fT_mrtIJARCYDNM3J5pl-2">
          <mxGeometry relative="1" as="geometry">
            <Array as="points">
              <mxPoint x="543" y="364" />
            </Array>
          </mxGeometry>
        </mxCell>
        <mxCell id="fT_mrtIJARCYDNM3J5pl-23" style="edgeStyle=orthogonalEdgeStyle;rounded=0;orthogonalLoop=1;jettySize=auto;html=1;exitX=0.5;exitY=0;exitDx=0;exitDy=0;entryX=0.5;entryY=1;entryDx=0;entryDy=0;entryPerimeter=0;" edge="1" parent="WIyWlLk6GJQsqaUBKTNV-1" source="fT_mrtIJARCYDNM3J5pl-9" target="fT_mrtIJARCYDNM3J5pl-2">
          <mxGeometry relative="1" as="geometry">
            <Array as="points">
              <mxPoint x="646" y="334" />
              <mxPoint x="569" y="334" />
            </Array>
          </mxGeometry>
        </mxCell>
        <mxCell id="fT_mrtIJARCYDNM3J5pl-24" style="edgeStyle=orthogonalEdgeStyle;rounded=0;orthogonalLoop=1;jettySize=auto;html=1;exitX=0.5;exitY=0;exitDx=0;exitDy=0;entryX=0.75;entryY=1;entryDx=0;entryDy=0;entryPerimeter=0;" edge="1" parent="WIyWlLk6GJQsqaUBKTNV-1" source="fT_mrtIJARCYDNM3J5pl-13" target="fT_mrtIJARCYDNM3J5pl-2">
          <mxGeometry relative="1" as="geometry" />
        </mxCell>
        <mxCell id="fT_mrtIJARCYDNM3J5pl-25" value="&lt;i&gt;SwingConsoleStream&lt;/i&gt;" style="html=1;whiteSpace=wrap;" vertex="1" parent="WIyWlLk6GJQsqaUBKTNV-1">
          <mxGeometry x="846" y="574" width="127.5" height="30" as="geometry" />
        </mxCell>
        <mxCell id="fT_mrtIJARCYDNM3J5pl-27" style="edgeStyle=orthogonalEdgeStyle;rounded=0;orthogonalLoop=1;jettySize=auto;html=1;entryX=0.61;entryY=1.045;entryDx=0;entryDy=0;entryPerimeter=0;exitX=0.5;exitY=0;exitDx=0;exitDy=0;" edge="1" parent="WIyWlLk6GJQsqaUBKTNV-1" source="fT_mrtIJARCYDNM3J5pl-25" target="fT_mrtIJARCYDNM3J5pl-3">
          <mxGeometry relative="1" as="geometry">
            <mxPoint x="909.7272727272727" y="574" as="sourcePoint" />
          </mxGeometry>
        </mxCell>
        <mxCell id="fT_mrtIJARCYDNM3J5pl-28" value="&lt;font style=&quot;font-size: 18px;&quot;&gt;Dumback - Diagrama de classes (elementos em negrito são públicos)&lt;/font&gt;" style="text;html=1;align=left;verticalAlign=middle;resizable=0;points=[];autosize=1;strokeColor=none;fillColor=none;" vertex="1" parent="WIyWlLk6GJQsqaUBKTNV-1">
          <mxGeometry x="196" y="160" width="580" height="40" as="geometry" />
        </mxCell>
        <mxCell id="fT_mrtIJARCYDNM3J5pl-29" value="&lt;i&gt;&lt;font style=&quot;font-size: 9px;&quot;&gt;&lt;b&gt;ConfigEntries&lt;/b&gt;&lt;/font&gt;&lt;/i&gt;" style="html=1;whiteSpace=wrap;fontColor=#828282;strokeColor=#828282;" vertex="1" parent="WIyWlLk6GJQsqaUBKTNV-1">
          <mxGeometry x="680" y="224" width="90" height="20" as="geometry" />
        </mxCell>
        <mxCell id="fT_mrtIJARCYDNM3J5pl-30" value="&lt;i&gt;&lt;font style=&quot;font-size: 9px;&quot;&gt;&lt;b&gt;Date&lt;/b&gt;&lt;/font&gt;&lt;/i&gt;" style="html=1;whiteSpace=wrap;fontColor=#828282;strokeColor=#828282;" vertex="1" parent="WIyWlLk6GJQsqaUBKTNV-1">
          <mxGeometry x="680" y="261.5" width="90" height="22.5" as="geometry" />
        </mxCell>
        <mxCell id="fT_mrtIJARCYDNM3J5pl-31" value="&lt;i&gt;&lt;font style=&quot;font-size: 9px; color: rgb(130, 130, 130);&quot;&gt;&lt;b style=&quot;&quot;&gt;I18n&lt;/b&gt; (internationalization)&lt;/font&gt;&lt;/i&gt;" style="html=1;whiteSpace=wrap;strokeColor=#999999;shadow=0;fillColor=#FFFFFF;" vertex="1" parent="WIyWlLk6GJQsqaUBKTNV-1">
          <mxGeometry x="370" y="236.5" width="110" height="25" as="geometry" />
        </mxCell>
        <mxCell id="fT_mrtIJARCYDNM3J5pl-33" style="edgeStyle=orthogonalEdgeStyle;rounded=0;orthogonalLoop=1;jettySize=auto;html=1;exitX=0;exitY=0.5;exitDx=0;exitDy=0;entryX=0.984;entryY=0.507;entryDx=0;entryDy=0;entryPerimeter=0;strokeColor=#828282;" edge="1" parent="WIyWlLk6GJQsqaUBKTNV-1" source="fT_mrtIJARCYDNM3J5pl-29" target="fT_mrtIJARCYDNM3J5pl-2">
          <mxGeometry relative="1" as="geometry" />
        </mxCell>
        <mxCell id="fT_mrtIJARCYDNM3J5pl-35" style="edgeStyle=orthogonalEdgeStyle;rounded=0;orthogonalLoop=1;jettySize=auto;html=1;entryX=-0.003;entryY=0.502;entryDx=0;entryDy=0;entryPerimeter=0;strokeColor=#828282;" edge="1" parent="WIyWlLk6GJQsqaUBKTNV-1" source="fT_mrtIJARCYDNM3J5pl-31" target="fT_mrtIJARCYDNM3J5pl-2">
          <mxGeometry relative="1" as="geometry" />
        </mxCell>
        <mxCell id="fT_mrtIJARCYDNM3J5pl-36" style="edgeStyle=orthogonalEdgeStyle;rounded=0;orthogonalLoop=1;jettySize=auto;html=1;entryX=0;entryY=0;entryDx=105;entryDy=41;entryPerimeter=0;strokeColor=#828282;" edge="1" parent="WIyWlLk6GJQsqaUBKTNV-1" source="fT_mrtIJARCYDNM3J5pl-30" target="fT_mrtIJARCYDNM3J5pl-2">
          <mxGeometry relative="1" as="geometry" />
        </mxCell>
      </root>
    </mxGraphModel>
  </diagram>
</mxfile>
